 http://www.imdb.com/title/tt1391137/

General
Complete name : Why.Did.I.Get.Married.Too.2010.DVDRip.H264.FEEL-FREE
Format : MPEG-4
Format profile : Base Media
Codec ID : isom
File size : 1.16 GiB
Duration : 2h 0mn
Overall bit rate : 1 368 Kbps

Video
ID : 1
Format : MPEG-4 Visual
Format profile : Simple@L1
Format settings, BVOP : No
Format settings, QPel : No
Format settings, GMC : No warppoints
Format settings, Matrix : Default (H.263)
Codec ID : 20
Duration : 2h 0mn
Bit rate mode : Variable
Bit rate : 1 198 Kbps
Width : 688 pixels
Height : 288 pixels
Display aspect ratio : 2.35:1
Frame rate mode : Constant
Frame rate : 23.976 fps
Resolution : 24 bits
Colorimetry : 4:2:0
Scan type : Progressive
Bits/(Pixel*Frame) : 0.252
Stream size : 1.01 GiB (88%)
Writing library : Lavc51.40.4

Audio
ID : 2
Format : AAC
Format/Info : Advanced Audio Codec
Format version : Version 4
Format profile : LC
Format settings, SBR : No
Codec ID : 40
Duration : 2h 0mn
Bit rate mode : Variable
Bit rate : 165 Kbps
Channel(s) : 2 channels
Channel positions : L R
Sampling rate : 48.0 KHz
Resolution : 16 bits
Stream size : 143 MiB (12%)


 
http://thepiratebay.org/user/hiest




Screenshots:
 
http://www.starshare.ro/bitbucket/Why.Did.I.Get.Married.Too.2010.DVDRip.H264.FEEL-FREE.mp4_thumbs_%5B2010.08.21_10.08.19%5D.jpg
 
http://www.starshare.ro/bitbucket/vlcsnap-2010-08-21-10h10m37s156.jpg
 
http://www.starshare.ro/bitbucket/vlcsnap-2010-08-21-10h08m40s6.jpg
 
http://www.starshare.ro/bitbucket/vlcsnap-2010-08-21-10h08m35s217.jpg